<svg id="final_svg" xmlns="https://www.w3.org/2000/svg" xmlns:xlink="https://www.w3.org/1999/xlink" viewBox="1.9161903858184814 171.229248046875 830.1459350585938 189">
      <style type="text/css">.st0{fill:#003399;}	.st1{fill:#1192F2;}</style>
    <metadata>
              <sfw>
                      <slices></slices>
            <slicesourcebounds bottomleftorigin="true" height="315" width="273.1349" x="-34.3467" y="-81.6231"></slicesourcebounds>
                  </sfw>
          </metadata>
    <g id="color_index_1" fill="#21a8f4" transform="translate(1.9161904042053948, 171.22925000000004) scale(0.6)" opacity="1">
              <path d="M136.5675,192.4278v-35.3756l136.5675-78.8504v35.3755L136.5675,192.4278z M273.1349,174.8676v-35.3755		l-136.5675,78.8504v35.3756L273.1349,174.8676z M273.1349,236.1495V200.774l-136.5675,78.8504V315L273.1349,236.1495z"></path>
          </g>
    <g id="color_index_0" fill="#192abf" transform="translate(1.9161904042053948, 171.22925000000004) scale(0.6)" opacity="1">
              <path d="M136.5755,131.1424L23.1765,65.4707L136.5749,0L136.5755,131.1424z M136.5675,192.4278v-35.3756L0,78.2018		l0,35.3755L136.5675,192.4278z M136.5675,253.7181v-35.3756L0,139.4921l0,35.3755L136.5675,253.7181z M136.5675,315v-35.3756		L0,200.774l0,35.3755L136.5675,315z"></path>
          </g>
    <g fill="#2f3891" id="text_group" transform="translate(190.21212990829468, 174.22925000000004)" opacity="1.0">
              <path d="M35.55 150L8.40 150Q7.65 150 7.13 149.47Q6.60 148.95 6.60 148.20L6.60 148.20L6.60 46.80Q6.60 46.05 7.13 45.53Q7.65 45 8.40 45L8.40 45L35.55 45Q49.20 45 57.45 52.95Q65.70 60.90 65.70 74.10L65.70 74.10L65.70 120.90Q65.70 134.10 57.45 142.05Q49.20 150 35.55 150L35.55 150ZM27.75 63.90L27.75 131.10Q27.75 131.85 28.50 131.85L28.50 131.85L35.25 131.70Q39.30 131.55 41.85 128.25Q44.40 124.95 44.55 119.55L44.55 119.55L44.55 75.45Q44.55 69.75 42 66.45Q39.45 63.15 35.10 63.15L35.10 63.15L28.50 63.15Q27.75 63.15 27.75 63.90L27.75 63.90ZM72.30 148.05L72.30 148.05L94.35 46.65Q94.65 45 96.30 45L96.30 45L116.55 45Q118.20 45 118.50 46.65L118.50 46.65L140.55 148.65Q140.55 150 138.90 150L138.90 150L120.90 150Q119.25 150 118.95 148.35L118.95 148.35L116.55 133.95Q116.55 133.20 115.65 133.20L115.65 133.20L96.60 133.20Q95.70 133.20 95.70 133.95L95.70 133.95L93.30 148.35Q93.00 150 91.35 150L91.35 150L73.80 150Q71.85 150 72.30 148.05ZM105.45 75.15L98.70 116.10Q98.70 116.85 99.30 116.85L99.30 116.85L112.80 116.85Q113.70 116.85 113.40 116.10L113.40 116.10L106.35 75.15Q106.35 74.70 105.90 74.70L105.90 74.70Q105.75 74.70 105.45 75.15L105.45 75.15ZM177.90 151.20L177.90 151.20Q169.20 151.20 162.60 147.75Q156 144.30 152.40 138.07Q148.80 131.85 148.80 123.75L148.80 123.75L148.80 119.40Q148.80 118.65 149.33 118.13Q149.85 117.60 150.60 117.60L150.60 117.60L167.85 117.60Q168.60 117.60 169.13 118.13Q169.65 118.65 169.65 119.40L169.65 119.40L169.65 122.70Q169.65 127.35 172.05 130.20Q174.45 133.05 178.05 133.05L178.05 133.05Q181.65 133.05 184.05 130.35Q186.45 127.65 186.45 123.30L186.45 123.30Q186.45 118.80 183.45 115.58Q180.45 112.35 171.75 106.05L171.75 106.05Q164.25 100.65 159.60 96.45Q154.95 92.25 151.65 86.10Q148.35 79.95 148.35 71.85L148.35 71.85Q148.35 59.10 156.30 51.45Q164.25 43.80 177.30 43.80L177.30 43.80Q190.50 43.80 198.53 51.75Q206.55 59.70 206.55 72.60L206.55 72.60L206.55 76.20Q206.55 76.95 206.03 77.48Q205.50 78 204.75 78L204.75 78L187.50 78Q186.75 78 186.23 77.48Q185.70 76.95 185.70 76.20L185.70 76.20L185.70 72.15Q185.70 67.50 183.38 64.73Q181.05 61.95 177.30 61.95L177.30 61.95Q173.70 61.95 171.45 64.58Q169.20 67.20 169.20 71.85L169.20 71.85Q169.20 76.35 172.05 79.80Q174.90 83.25 183.30 89.40L183.30 89.40Q192.60 96.30 197.33 100.58Q202.05 104.85 204.68 110.03Q207.30 115.20 207.30 122.40L207.30 122.40Q207.30 135.60 199.20 143.40Q191.10 151.20 177.90 151.20ZM219.30 148.20L219.30 46.80Q219.30 45 221.10 45L221.10 45L238.65 45Q240.45 45 240.45 46.80L240.45 46.80L240.45 87.60Q240.45 88.35 241.20 88.35L241.20 88.35L256.20 88.35Q256.95 88.35 256.95 87.60L256.95 87.60L256.95 46.80Q256.95 45 258.75 45L258.75 45L276.30 45Q278.10 45 278.10 46.80L278.10 46.80L278.10 148.20Q278.10 150 276.30 150L276.30 150L258.75 150Q256.95 150 256.95 148.20L256.95 148.20L256.95 107.25Q256.95 106.50 256.20 106.50L256.20 106.50L241.20 106.50Q240.45 106.50 240.45 107.25L240.45 107.25L240.45 148.20Q240.45 150 238.65 150L238.65 150L221.10 150Q219.30 150 219.30 148.20L219.30 148.20ZM292.65 148.20L292.65 46.80Q292.65 45 294.45 45L294.45 45L319.50 45Q334.50 45 342.98 52.13Q351.45 59.25 351.45 73.65L351.45 73.65Q351.45 88.50 341.25 95.25L341.25 95.25Q340.65 95.70 341.10 96.15L341.10 96.15Q352.95 104.40 352.95 121.05L352.95 121.05Q352.95 127.95 350.78 133.35Q348.60 138.75 344.63 142.50Q340.65 146.25 335.10 148.13Q329.55 150 322.80 150L322.80 150L294.45 150Q292.65 150 292.65 148.20L292.65 148.20ZM313.80 104.25L313.80 104.25L313.80 130.95Q313.80 131.70 314.55 131.70L314.55 131.70L321.15 131.70Q326.10 131.70 328.95 128.18Q331.80 124.65 331.80 117.90L331.80 117.90Q331.80 111.15 328.95 107.33Q326.10 103.50 321.30 103.50L321.30 103.50L314.55 103.50Q313.80 103.50 313.80 104.25ZM314.55 88.20L314.55 88.20L319.95 88.20Q325.05 88.20 327.90 84.98Q330.75 81.75 330.75 75.90L330.75 75.90Q330.75 63.15 319.95 63.15L319.95 63.15L314.55 63.15Q313.80 63.15 313.80 63.90L313.80 63.90L313.80 87.45Q313.80 88.20 314.55 88.20ZM393.75 151.20L393.75 151.20Q379.95 151.20 371.70 143.10Q363.45 135 363.45 121.50L363.45 121.50L363.45 73.50Q363.45 60 371.70 51.90Q379.95 43.80 393.75 43.80L393.75 43.80Q407.55 43.80 415.88 51.90Q424.20 60 424.20 73.50L424.20 73.50L424.20 121.50Q424.20 135 415.88 143.10Q407.55 151.20 393.75 151.20ZM393.75 133.05L393.75 133.05Q397.95 133.05 400.50 130.13Q403.05 127.20 403.05 122.40L403.05 122.40L403.05 72.60Q403.05 67.80 400.50 64.88Q397.95 61.95 393.75 61.95L393.75 61.95Q389.55 61.95 387.08 64.88Q384.60 67.80 384.60 72.60L384.60 72.60L384.60 122.40Q384.60 127.20 387.08 130.13Q389.55 133.05 393.75 133.05ZM431.70 148.05L431.70 148.05L453.75 46.65Q454.05 45 455.70 45L455.70 45L475.95 45Q477.60 45 477.90 46.65L477.90 46.65L499.95 148.65Q499.95 150 498.30 150L498.30 150L480.30 150Q478.65 150 478.35 148.35L478.35 148.35L475.95 133.95Q475.95 133.20 475.05 133.20L475.05 133.20L456.00 133.20Q455.10 133.20 455.10 133.95L455.10 133.95L452.70 148.35Q452.40 150 450.75 150L450.75 150L433.20 150Q431.25 150 431.70 148.05ZM464.85 75.15L458.10 116.10Q458.10 116.85 458.70 116.85L458.70 116.85L472.20 116.85Q473.10 116.85 472.80 116.10L472.80 116.10L465.75 75.15Q465.75 74.70 465.30 74.70L465.30 74.70Q465.15 74.70 464.85 75.15L464.85 75.15ZM510.30 148.20L510.30 148.20L510.30 46.80Q510.30 45 512.10 45L512.10 45L542.40 45Q548.70 45 553.88 47.33Q559.05 49.65 562.73 53.78Q566.40 57.90 568.50 63.75Q570.60 69.60 570.60 76.65L570.60 76.65Q570.60 85.65 567.23 92.33Q563.85 99 557.85 102.75L557.85 102.75Q557.25 102.90 557.40 103.65L557.40 103.65L571.35 148.50Q571.35 150 569.70 150L569.70 150L551.70 150Q550.05 150 549.60 148.50L549.60 148.50L538.05 107.10Q537.90 106.50 537.30 106.50L537.30 106.50L532.20 106.50Q531.45 106.50 531.45 107.25L531.45 107.25L531.45 148.20Q531.45 150 529.65 150L529.65 150L512.10 150Q510.30 150 510.30 148.20ZM532.20 90.30L532.20 90.30L538.95 90.30Q543.60 90.30 546.53 86.70Q549.45 83.10 549.45 76.80L549.45 76.80Q549.45 70.50 546.53 66.83Q543.60 63.15 538.95 63.15L538.95 63.15L532.20 63.15Q531.45 63.15 531.45 63.90L531.45 63.90L531.45 89.55Q531.45 90.30 532.20 90.30ZM611.70 150L584.55 150Q583.80 150 583.28 149.47Q582.75 148.95 582.75 148.20L582.75 148.20L582.75 46.80Q582.75 46.05 583.28 45.53Q583.80 45 584.55 45L584.55 45L611.70 45Q625.35 45 633.60 52.95Q641.85 60.90 641.85 74.10L641.85 74.10L641.85 120.90Q641.85 134.10 633.60 142.05Q625.35 150 611.70 150L611.70 150ZM603.90 63.90L603.90 131.10Q603.90 131.85 604.65 131.85L604.65 131.85L611.40 131.70Q615.45 131.55 618.00 128.25Q620.55 124.95 620.70 119.55L620.70 119.55L620.70 75.45Q620.70 69.75 618.15 66.45Q615.60 63.15 611.25 63.15L611.25 63.15L604.65 63.15Q603.90 63.15 603.90 63.90L603.90 63.90Z"></path>
          </g>
  </svg>