<svg version="1.1" id="final_svg" xmlns:x="&amp;ns_extend;" xmlns:i="&amp;ns_ai;" xmlns:graph="&amp;ns_graphs;" xmlns="https://www.w3.org/2000/svg" xmlns:xlink="https://www.w3.org/1999/xlink" x="0px" y="0px" viewBox="124.57592010498047 129.35821533203125 608.1109619140625 189" style="enable-background:new 0 0 273.1349 315;" xml:space="preserve">
      <style type="text/css">.st0{fill:#003399;}	.st1{fill:#1192F2;}</style>
    <metadata>
              <sfw>
                      <slices></slices>
            <slicesourcebounds bottomleftorigin="true" height="315" width="273.1349" x="-34.3467" y="-81.6231"></slicesourcebounds>
                  </sfw>
          </metadata>
    <g id="color_index_1" fill="#21a8f4" transform="translate(124.57592365257642, 129.35821) scale(0.6)" opacity="1">
              <path d="M136.5675,192.4278v-35.3756l136.5675-78.8504v35.3755L136.5675,192.4278z M273.1349,174.8676v-35.3755		l-136.5675,78.8504v35.3756L273.1349,174.8676z M273.1349,236.1495V200.774l-136.5675,78.8504V315L273.1349,236.1495z"></path>
          </g>
    <g id="color_index_0" fill="#192abf" transform="translate(124.57592365257642, 129.35821) scale(0.6)" opacity="1">
              <path d="M136.5755,131.1424L23.1765,65.4707L136.5749,0L136.5755,131.1424z M136.5675,192.4278v-35.3756L0,78.2018		l0,35.3755L136.5675,192.4278z M136.5675,253.7181v-35.3756L0,139.4921l0,35.3755L136.5675,253.7181z M136.5675,315v-35.3756		L0,200.774l0,35.3755L136.5675,315z"></path>
          </g>
    <g fill="#343d68" id="text_group" transform="translate(308.45686365257643, 159.07147500000002)" opacity="1.0">
              <path d="M4.26 95.56L4.26 30.18Q4.26 29.02 5.42 29.02L5.42 29.02L38.49 29.02Q39.65 29.02 39.65 30.18L39.65 30.18L39.65 39.56Q39.65 40.72 38.49 40.72L38.49 40.72L18.38 40.72Q17.89 40.72 17.89 41.20L17.89 41.20L17.89 56.48Q17.89 56.97 18.38 56.97L18.38 56.97L29.89 56.97Q31.05 56.97 31.05 58.13L31.05 58.13L31.05 67.51Q31.05 68.67 29.89 68.67L29.89 68.67L18.38 68.67Q17.89 68.67 17.89 69.15L17.89 69.15L17.89 95.56Q17.89 96.72 16.73 96.72L16.73 96.72L5.42 96.72Q4.26 96.72 4.26 95.56L4.26 95.56ZM46.13 95.56L46.13 95.56L46.13 30.18Q46.13 29.02 47.30 29.02L47.30 29.02L80.47 29.02Q81.63 29.02 81.63 30.18L81.63 30.18L81.63 39.56Q81.63 40.72 80.47 40.72L80.47 40.72L60.26 40.72Q59.77 40.72 59.77 41.20L59.77 41.20L59.77 56.48Q59.77 56.97 60.26 56.97L60.26 56.97L71.86 56.97Q73.02 56.97 73.02 58.13L73.02 58.13L73.02 67.51Q73.02 68.67 71.86 68.67L71.86 68.67L60.26 68.67Q59.77 68.67 59.77 69.15L59.77 69.15L59.77 84.53Q59.77 85.02 60.26 85.02L60.26 85.02L80.47 85.02Q81.63 85.02 81.63 86.18L81.63 86.18L81.63 95.56Q81.63 96.72 80.47 96.72L80.47 96.72L47.30 96.72Q46.13 96.72 46.13 95.56ZM89.66 95.56L89.66 95.56L89.66 30.18Q89.66 29.02 90.82 29.02L90.82 29.02L123.99 29.02Q125.15 29.02 125.15 30.18L125.15 30.18L125.15 39.56Q125.15 40.72 123.99 40.72L123.99 40.72L103.78 40.72Q103.30 40.72 103.30 41.20L103.30 41.20L103.30 56.48Q103.30 56.97 103.78 56.97L103.78 56.97L115.39 56.97Q116.55 56.97 116.55 58.13L116.55 58.13L116.55 67.51Q116.55 68.67 115.39 68.67L115.39 68.67L103.78 68.67Q103.30 68.67 103.30 69.15L103.30 69.15L103.30 84.53Q103.30 85.02 103.78 85.02L103.78 85.02L123.99 85.02Q125.15 85.02 125.15 86.18L125.15 86.18L125.15 95.56Q125.15 96.72 123.99 96.72L123.99 96.72L90.82 96.72Q89.66 96.72 89.66 95.56ZM151.85 96.72L134.34 96.72Q133.86 96.72 133.52 96.38Q133.18 96.04 133.18 95.56L133.18 95.56L133.18 30.18Q133.18 29.69 133.52 29.35Q133.86 29.02 134.34 29.02L134.34 29.02L151.85 29.02Q160.65 29.02 165.97 34.14Q171.29 39.27 171.29 47.78L171.29 47.78L171.29 77.96Q171.29 86.47 165.97 91.59Q160.65 96.72 151.85 96.72L151.85 96.72ZM146.82 41.20L146.82 84.53Q146.82 85.02 147.30 85.02L147.30 85.02L151.66 84.92Q154.27 84.82 155.91 82.69Q157.56 80.57 157.65 77.09L157.65 77.09L157.65 48.65Q157.65 44.97 156.01 42.85Q154.36 40.72 151.56 40.72L151.56 40.72L147.30 40.72Q146.82 40.72 146.82 41.20L146.82 41.20ZM198.66 28.24L198.66 28.24Q203.01 28.24 206.59 29.55Q210.17 30.85 212.73 33.32Q215.30 35.79 216.65 39.27Q218.00 42.75 218.00 47.10L218.00 47.10L218.00 48.17Q218.00 49.33 216.84 49.33L216.84 49.33L205.53 49.81Q204.37 49.81 204.37 48.75L204.37 48.75L204.37 46.23Q204.37 43.43 202.82 41.69Q201.27 39.94 198.66 39.94L198.66 39.94Q196.15 39.94 194.60 41.69Q193.05 43.43 193.05 46.23L193.05 46.23L193.05 79.60Q193.05 82.40 194.60 84.10Q196.15 85.79 198.66 85.79L198.66 85.79Q201.27 85.79 202.82 84.10Q204.37 82.40 204.37 79.60L204.37 79.60L204.37 76.99Q204.37 75.83 205.53 75.83L205.53 75.83L216.84 76.31Q218.00 76.31 218.00 77.47L218.00 77.47L218.00 78.44Q218.00 82.79 216.60 86.32Q215.20 89.85 212.69 92.32Q210.17 94.78 206.59 96.14Q203.01 97.49 198.66 97.49L198.66 97.49Q194.31 97.49 190.78 96.14Q187.25 94.78 184.68 92.32Q182.12 89.85 180.77 86.32Q179.41 82.79 179.41 78.44L179.41 78.44L179.41 47.10Q179.41 42.75 180.77 39.27Q182.12 35.79 184.68 33.32Q187.25 30.85 190.78 29.55Q194.31 28.24 198.66 28.24ZM227.29 29.02L227.29 29.02L238.61 29.02Q239.77 29.02 239.77 30.18L239.77 30.18L239.77 78.83Q239.77 81.92 241.31 83.86Q242.86 85.79 245.38 85.79L245.38 85.79Q247.89 85.79 249.39 83.86Q250.89 81.92 250.89 78.83L250.89 78.83L250.89 30.18Q250.89 29.02 252.05 29.02L252.05 29.02L263.37 29.02Q264.53 29.02 264.53 30.18L264.53 30.18L264.53 77.47Q264.53 82.02 263.17 85.69Q261.82 89.37 259.30 91.98Q256.79 94.59 253.26 96.04Q249.73 97.49 245.38 97.49L245.38 97.49Q241.02 97.49 237.49 96.04Q233.96 94.59 231.40 91.98Q228.84 89.37 227.48 85.69Q226.13 82.02 226.13 77.47L226.13 77.47L226.13 30.18Q226.13 29.02 227.29 29.02ZM273.33 95.56L273.33 30.18Q273.33 29.02 274.49 29.02L274.49 29.02L290.64 29.02Q300.31 29.02 305.78 33.61Q311.24 38.20 311.24 47.49L311.24 47.49Q311.24 57.06 304.66 61.42L304.66 61.42Q304.28 61.71 304.57 62.00L304.57 62.00Q312.21 67.32 312.21 78.05L312.21 78.05Q312.21 82.50 310.81 85.98Q309.40 89.47 306.84 91.88Q304.28 94.30 300.70 95.51Q297.12 96.72 292.77 96.72L292.77 96.72L274.49 96.72Q273.33 96.72 273.33 95.56L273.33 95.56ZM286.97 67.22L286.97 67.22L286.97 84.44Q286.97 84.92 287.45 84.92L287.45 84.92L291.70 84.92Q294.90 84.92 296.73 82.65Q298.57 80.37 298.57 76.02L298.57 76.02Q298.57 71.67 296.73 69.20Q294.90 66.74 291.80 66.74L291.80 66.74L287.45 66.74Q286.97 66.74 286.97 67.22ZM287.45 56.87L287.45 56.87L290.93 56.87Q294.22 56.87 296.06 54.79Q297.89 52.71 297.89 48.94L297.89 48.94Q297.89 40.72 290.93 40.72L290.93 40.72L287.45 40.72Q286.97 40.72 286.97 41.20L286.97 41.20L286.97 56.39Q286.97 56.87 287.45 56.87ZM319.66 95.56L319.66 95.56L319.66 30.18Q319.66 29.02 320.82 29.02L320.82 29.02L353.99 29.02Q355.15 29.02 355.15 30.18L355.15 30.18L355.15 39.56Q355.15 40.72 353.99 40.72L353.99 40.72L333.78 40.72Q333.29 40.72 333.29 41.20L333.29 41.20L333.29 56.48Q333.29 56.97 333.78 56.97L333.78 56.97L345.38 56.97Q346.54 56.97 346.54 58.13L346.54 58.13L346.54 67.51Q346.54 68.67 345.38 68.67L345.38 68.67L333.78 68.67Q333.29 68.67 333.29 69.15L333.29 69.15L333.29 84.53Q333.29 85.02 333.78 85.02L333.78 85.02L353.99 85.02Q355.15 85.02 355.15 86.18L355.15 86.18L355.15 95.56Q355.15 96.72 353.99 96.72L353.99 96.72L320.82 96.72Q319.66 96.72 319.66 95.56Z"></path>
          </g>
    <g fill="#6876aa" id="tagline_group" transform="translate(308.45686365257643, 260.845945)" opacity="1.0">
              <path d="M11.38 10.24L4.94 10.24L4.94 14.59L10.27 14.59Q10.91 14.59 11.34 14.99Q11.77 15.40 11.77 16.04L11.77 16.04Q11.77 16.59 11.34 17.01Q10.91 17.43 10.27 17.43L10.27 17.43L4.94 17.43L4.94 23.18Q4.94 23.82 4.48 24.25Q4.02 24.68 3.41 24.68L3.41 24.68Q2.72 24.68 2.28 24.26Q1.85 23.84 1.85 23.18L1.85 23.18L1.85 8.91Q1.85 8.27 2.28 7.84Q2.72 7.40 3.36 7.40L3.36 7.40L11.38 7.40Q12.02 7.40 12.45 7.81Q12.88 8.22 12.88 8.86L12.88 8.86Q12.88 9.40 12.45 9.82Q12.02 10.24 11.38 10.24L11.38 10.24ZM30.66 21.84Q31.30 21.84 31.73 22.28Q32.16 22.71 32.16 23.28L32.16 23.28Q32.16 23.89 31.73 24.29Q31.30 24.68 30.66 24.68L30.66 24.68L22.39 24.68Q21.75 24.68 21.31 24.25Q20.88 23.82 20.88 23.18L20.88 23.18L20.88 8.91Q20.88 8.27 21.31 7.84Q21.75 7.40 22.39 7.40L22.39 7.40L30.66 7.40Q31.30 7.40 31.73 7.81Q32.16 8.22 32.16 8.86L32.16 8.86Q32.16 9.48 31.74 9.86Q31.32 10.24 30.66 10.24L30.66 10.24L23.97 10.24L23.97 14.44L29.55 14.44Q30.19 14.44 30.62 14.85Q31.05 15.25 31.05 15.90L31.05 15.90Q31.05 16.51 30.63 16.90Q30.21 17.28 29.55 17.28L29.55 17.28L23.97 17.28L23.97 21.84L30.66 21.84ZM49.93 21.84Q50.58 21.84 51.01 22.28Q51.44 22.71 51.44 23.28L51.44 23.28Q51.44 23.89 51.01 24.29Q50.58 24.68 49.93 24.68L49.93 24.68L41.66 24.68Q41.02 24.68 40.59 24.25Q40.16 23.82 40.16 23.18L40.16 23.18L40.16 8.91Q40.16 8.27 40.59 7.84Q41.02 7.40 41.66 7.40L41.66 7.40L49.93 7.40Q50.58 7.40 51.01 7.81Q51.44 8.22 51.44 8.86L51.44 8.86Q51.44 9.48 51.02 9.86Q50.60 10.24 49.93 10.24L49.93 10.24L43.24 10.24L43.24 14.44L48.82 14.44Q49.46 14.44 49.90 14.85Q50.33 15.25 50.33 15.90L50.33 15.90Q50.33 16.51 49.91 16.90Q49.49 17.28 48.82 17.28L48.82 17.28L43.24 17.28L43.24 21.84L49.93 21.84ZM66.84 7.40Q69.16 7.40 70.83 8.55Q72.49 9.70 73.37 11.66Q74.25 13.63 74.25 16.04L74.25 16.04Q74.25 18.46 73.37 20.43Q72.49 22.39 70.83 23.54Q69.16 24.68 66.84 24.68L66.84 24.68L60.94 24.68Q60.30 24.68 59.87 24.25Q59.44 23.82 59.44 23.18L59.44 23.18L59.44 8.91Q59.44 8.27 59.87 7.84Q60.30 7.40 60.94 7.40L60.94 7.40L66.84 7.40ZM66.59 21.84Q68.82 21.84 69.93 20.20Q71.04 18.56 71.04 16.04L71.04 16.04Q71.04 13.53 69.91 11.88Q68.79 10.24 66.59 10.24L66.59 10.24L62.52 10.24L62.52 21.84L66.59 21.84ZM92.61 15.11Q93.92 15.62 94.75 16.69Q95.57 17.75 95.57 19.43L95.57 19.43Q95.57 22.36 93.89 23.52Q92.22 24.68 89.90 24.68L89.90 24.68L83.75 24.68Q83.11 24.68 82.68 24.25Q82.24 23.82 82.24 23.18L82.24 23.18L82.24 8.91Q82.24 8.27 82.68 7.84Q83.11 7.40 83.75 7.40L83.75 7.40L89.97 7.40Q94.66 7.40 94.66 11.80L94.66 11.80Q94.66 12.91 94.13 13.76Q93.60 14.61 92.61 15.11L92.61 15.11ZM91.45 12.34Q91.45 11.33 90.94 10.82Q90.44 10.32 89.53 10.32L89.53 10.32L85.45 10.32L85.45 14.17L89.60 14.17Q90.34 14.17 90.90 13.67Q91.45 13.18 91.45 12.34L91.45 12.34ZM89.90 21.84Q91.06 21.84 91.71 21.23Q92.36 20.61 92.36 19.43L92.36 19.43Q92.36 17.97 91.60 17.52Q90.83 17.08 89.72 17.08L89.72 17.08L85.45 17.08L85.45 21.84L89.90 21.84ZM117.12 22.76Q117.24 23.08 117.24 23.35L117.24 23.35Q117.24 23.99 116.82 24.40Q116.41 24.81 115.86 24.81L115.86 24.81Q115.42 24.81 115.06 24.53Q114.70 24.26 114.50 23.79L114.50 23.79L113.22 20.81L105.87 20.81L104.58 23.82Q104.41 24.29 104.05 24.55Q103.69 24.81 103.27 24.81L103.27 24.81Q102.63 24.81 102.30 24.46Q101.97 24.12 101.97 23.52L101.97 23.52Q101.97 23.30 102.04 23.05L102.04 23.05L108.19 8.29Q108.38 7.80 108.78 7.53Q109.17 7.26 109.67 7.31L109.67 7.31Q110.11 7.31 110.49 7.57Q110.88 7.82 111.05 8.29L111.05 8.29L117.12 22.76ZM109.52 12.19L107.07 17.97L112.01 17.97L109.52 12.19ZM136.47 8.24Q137.24 8.64 137.24 9.50L137.24 9.50Q137.24 10.02 136.87 10.51L136.87 10.51Q136.47 11.03 135.86 11.03L135.86 11.03Q135.44 11.03 135.02 10.81L135.02 10.81Q133.81 10.24 132.40 10.24L132.40 10.24Q130.67 10.24 129.39 10.97Q128.10 11.70 127.41 13.02Q126.72 14.34 126.72 16.04L126.72 16.04Q126.72 18.96 128.29 20.46Q129.86 21.97 132.40 21.97L132.40 21.97Q133.91 21.97 135.02 21.40L135.02 21.40Q135.46 21.20 135.81 21.20L135.81 21.20Q136.45 21.20 136.89 21.75L136.89 21.75Q137.26 22.21 137.26 22.76L137.26 22.76Q137.26 23.15 137.06 23.47Q136.87 23.79 136.50 23.97L136.50 23.97Q134.57 24.93 132.40 24.93L132.40 24.93Q129.98 24.93 127.96 23.91Q125.93 22.88 124.72 20.88Q123.51 18.88 123.51 16.04L123.51 16.04Q123.51 13.53 124.66 11.53Q125.81 9.53 127.83 8.40Q129.86 7.28 132.40 7.28L132.40 7.28Q134.60 7.28 136.47 8.24L136.47 8.24ZM158.24 22.12Q158.39 22.31 158.49 22.60Q158.59 22.88 158.59 23.13L158.59 23.13Q158.59 23.79 158.08 24.24Q157.58 24.68 156.91 24.68L156.91 24.68Q156.59 24.68 156.29 24.53Q156.00 24.39 155.80 24.12L155.80 24.12L150.44 17.06L148.10 19.30L148.10 23.18Q148.10 23.84 147.67 24.26Q147.23 24.68 146.54 24.68L146.54 24.68Q145.88 24.68 145.44 24.25Q145.01 23.82 145.01 23.18L145.01 23.18L145.01 8.91Q145.01 8.27 145.46 7.84Q145.90 7.40 146.59 7.40L146.59 7.40Q147.26 7.40 147.68 7.82Q148.10 8.24 148.10 8.91L148.10 8.91L148.10 15.62L156.00 7.85Q156.56 7.28 157.21 7.28L157.21 7.28Q157.77 7.28 158.17 7.75Q158.56 8.22 158.56 8.74L158.56 8.74Q158.56 9.26 158.12 9.70L158.12 9.70L152.74 14.83L158.24 22.12ZM189.76 7.40Q190.43 7.40 190.85 7.80Q191.27 8.19 191.27 8.84L191.27 8.84Q191.27 9.48 190.85 9.86Q190.43 10.24 189.76 10.24L189.76 10.24L185.89 10.24L185.89 23.18Q185.89 23.82 185.42 24.25Q184.95 24.68 184.26 24.68L184.26 24.68Q183.57 24.68 183.12 24.25Q182.68 23.82 182.68 23.18L182.68 23.18L182.68 10.24L178.80 10.24Q178.14 10.24 177.72 9.85Q177.30 9.45 177.30 8.81L177.30 8.81Q177.30 8.19 177.73 7.80Q178.16 7.40 178.80 7.40L178.80 7.40L189.76 7.40ZM214.42 16.04Q214.42 18.49 213.34 20.52Q212.25 22.56 210.34 23.75Q208.42 24.93 206.03 24.93L206.03 24.93Q203.63 24.93 201.72 23.75Q199.81 22.56 198.74 20.52Q197.66 18.49 197.66 16.04L197.66 16.04Q197.66 13.60 198.74 11.56Q199.81 9.53 201.72 8.34Q203.63 7.16 206.03 7.16L206.03 7.16Q208.42 7.16 210.34 8.34Q212.25 9.53 213.34 11.56Q214.42 13.60 214.42 16.04L214.42 16.04ZM211.21 16.04Q211.21 14.39 210.55 13.04Q209.88 11.70 208.69 10.91Q207.51 10.12 206.03 10.12L206.03 10.12Q204.52 10.12 203.35 10.90Q202.18 11.68 201.52 13.03Q200.87 14.39 200.87 16.04L200.87 16.04Q200.87 17.70 201.52 19.06Q202.18 20.41 203.35 21.19Q204.52 21.97 206.03 21.97L206.03 21.97Q207.51 21.97 208.69 21.18Q209.88 20.39 210.55 19.04Q211.21 17.70 211.21 16.04L211.21 16.04ZM247.72 22.12Q247.87 22.31 247.97 22.60Q248.06 22.88 248.06 23.13L248.06 23.13Q248.06 23.79 247.56 24.24Q247.05 24.68 246.39 24.68L246.39 24.68Q246.06 24.68 245.77 24.53Q245.47 24.39 245.27 24.12L245.27 24.12L239.92 17.06L237.57 19.30L237.57 23.18Q237.57 23.84 237.14 24.26Q236.71 24.68 236.02 24.68L236.02 24.68Q235.35 24.68 234.92 24.25Q234.49 23.82 234.49 23.18L234.49 23.18L234.49 8.91Q234.49 8.27 234.93 7.84Q235.38 7.40 236.07 7.40L236.07 7.40Q236.73 7.40 237.15 7.82Q237.57 8.24 237.57 8.91L237.57 8.91L237.57 15.62L245.47 7.85Q246.04 7.28 246.68 7.28L246.68 7.28Q247.25 7.28 247.64 7.75Q248.04 8.22 248.04 8.74L248.04 8.74Q248.04 9.26 247.60 9.70L247.60 9.70L242.21 14.83L247.72 22.12ZM265.59 21.84Q266.23 21.84 266.66 22.28Q267.09 22.71 267.09 23.28L267.09 23.28Q267.09 23.89 266.66 24.29Q266.23 24.68 265.59 24.68L265.59 24.68L257.32 24.68Q256.68 24.68 256.25 24.25Q255.81 23.82 255.81 23.18L255.81 23.18L255.81 8.91Q255.81 8.27 256.25 7.84Q256.68 7.40 257.32 7.40L257.32 7.40L265.59 7.40Q266.23 7.40 266.66 7.81Q267.09 8.22 267.09 8.86L267.09 8.86Q267.09 9.48 266.68 9.86Q266.26 10.24 265.59 10.24L265.59 10.24L258.90 10.24L258.90 14.44L264.48 14.44Q265.12 14.44 265.55 14.85Q265.98 15.25 265.98 15.90L265.98 15.90Q265.98 16.51 265.56 16.90Q265.14 17.28 264.48 17.28L264.48 17.28L258.90 17.28L258.90 21.84L265.59 21.84ZM284.87 21.84Q285.51 21.84 285.94 22.28Q286.37 22.71 286.37 23.28L286.37 23.28Q286.37 23.89 285.94 24.29Q285.51 24.68 284.87 24.68L284.87 24.68L276.60 24.68Q275.96 24.68 275.52 24.25Q275.09 23.82 275.09 23.18L275.09 23.18L275.09 8.91Q275.09 8.27 275.52 7.84Q275.96 7.40 276.60 7.40L276.60 7.40L284.87 7.40Q285.51 7.40 285.94 7.81Q286.37 8.22 286.37 8.86L286.37 8.86Q286.37 9.48 285.95 9.86Q285.53 10.24 284.87 10.24L284.87 10.24L278.18 10.24L278.18 14.44L283.76 14.44Q284.40 14.44 284.83 14.85Q285.26 15.25 285.26 15.90L285.26 15.90Q285.26 16.51 284.84 16.90Q284.42 17.28 283.76 17.28L283.76 17.28L278.18 17.28L278.18 21.84L284.87 21.84ZM301.50 7.40Q302.76 7.40 303.90 8.16Q305.03 8.91 305.72 10.18Q306.41 11.45 306.41 12.96L306.41 12.96Q306.41 14.44 305.72 15.72Q305.03 17.01 303.90 17.76Q302.76 18.51 301.50 18.51L301.50 18.51L297.21 18.51L297.21 23.18Q297.21 23.84 296.81 24.26Q296.42 24.68 295.78 24.68L295.78 24.68Q295.16 24.68 294.76 24.25Q294.37 23.82 294.37 23.18L294.37 23.18L294.37 8.91Q294.37 8.27 294.80 7.84Q295.23 7.40 295.88 7.40L295.88 7.40L301.50 7.40ZM301.50 15.70Q301.97 15.70 302.43 15.30Q302.89 14.91 303.17 14.28Q303.45 13.65 303.45 12.96L303.45 12.96Q303.45 12.27 303.17 11.64Q302.89 11.01 302.43 10.63Q301.97 10.24 301.50 10.24L301.50 10.24L297.21 10.24L297.21 15.70L301.50 15.70ZM337.84 7.40Q338.50 7.40 338.92 7.80Q339.34 8.19 339.34 8.84L339.34 8.84Q339.34 9.48 338.92 9.86Q338.50 10.24 337.84 10.24L337.84 10.24L333.96 10.24L333.96 23.18Q333.96 23.82 333.49 24.25Q333.02 24.68 332.33 24.68L332.33 24.68Q331.64 24.68 331.20 24.25Q330.75 23.82 330.75 23.18L330.75 23.18L330.75 10.24L326.88 10.24Q326.21 10.24 325.79 9.85Q325.37 9.45 325.37 8.81L325.37 8.81Q325.37 8.19 325.80 7.80Q326.24 7.40 326.88 7.40L326.88 7.40L337.84 7.40ZM360.64 22.26Q360.96 22.46 361.15 22.78Q361.33 23.10 361.33 23.45L361.33 23.45Q361.33 23.89 361.04 24.26L361.04 24.26Q360.67 24.71 359.90 24.71L359.90 24.71Q359.31 24.71 358.82 24.44L358.82 24.44Q357.04 23.42 357.04 20.31L357.04 20.31Q357.04 19.43 356.46 18.91Q355.88 18.39 354.79 18.39L354.79 18.39L350.18 18.39L350.18 23.18Q350.18 23.84 349.82 24.26Q349.46 24.68 348.87 24.68L348.87 24.68Q348.15 24.68 347.62 24.25Q347.09 23.82 347.09 23.18L347.09 23.18L347.09 8.91Q347.09 8.27 347.52 7.84Q347.96 7.40 348.60 7.40L348.60 7.40L355.71 7.40Q356.99 7.40 358.13 8.10Q359.26 8.79 359.94 10.00Q360.62 11.21 360.62 12.71L360.62 12.71Q360.62 13.95 359.95 15.12Q359.29 16.29 358.22 16.98L358.22 16.98Q359.78 18.07 359.93 19.89L359.93 19.89Q360.00 20.29 360.00 20.66L360.00 20.66Q360.10 21.42 360.20 21.76Q360.30 22.09 360.64 22.26L360.64 22.26ZM355.58 15.85Q356.03 15.85 356.45 15.43Q356.87 15.01 357.14 14.30Q357.41 13.60 357.41 12.79L357.41 12.79Q357.41 12.09 357.14 11.51Q356.87 10.93 356.45 10.59Q356.03 10.24 355.58 10.24L355.58 10.24L350.18 10.24L350.18 15.85L355.58 15.85ZM382.76 22.76Q382.88 23.08 382.88 23.35L382.88 23.35Q382.88 23.99 382.46 24.40Q382.04 24.81 381.50 24.81L381.50 24.81Q381.06 24.81 380.70 24.53Q380.34 24.26 380.14 23.79L380.14 23.79L378.86 20.81L371.50 20.81L370.22 23.82Q370.05 24.29 369.69 24.55Q369.33 24.81 368.91 24.81L368.91 24.81Q368.27 24.81 367.94 24.46Q367.60 24.12 367.60 23.52L367.60 23.52Q367.60 23.30 367.68 23.05L367.68 23.05L373.82 8.29Q374.02 7.80 374.42 7.53Q374.81 7.26 375.31 7.31L375.31 7.31Q375.75 7.31 376.13 7.57Q376.51 7.82 376.69 8.29L376.69 8.29L382.76 22.76ZM375.16 12.19L372.71 17.97L377.65 17.97L375.16 12.19ZM402.11 8.24Q402.88 8.64 402.88 9.50L402.88 9.50Q402.88 10.02 402.51 10.51L402.51 10.51Q402.11 11.03 401.49 11.03L401.49 11.03Q401.07 11.03 400.65 10.81L400.65 10.81Q399.44 10.24 398.04 10.24L398.04 10.24Q396.31 10.24 395.03 10.97Q393.74 11.70 393.05 13.02Q392.36 14.34 392.36 16.04L392.36 16.04Q392.36 18.96 393.93 20.46Q395.50 21.97 398.04 21.97L398.04 21.97Q399.54 21.97 400.65 21.40L400.65 21.40Q401.10 21.20 401.44 21.20L401.44 21.20Q402.09 21.20 402.53 21.75L402.53 21.75Q402.90 22.21 402.90 22.76L402.90 22.76Q402.90 23.15 402.70 23.47Q402.51 23.79 402.14 23.97L402.14 23.97Q400.21 24.93 398.04 24.93L398.04 24.93Q395.62 24.93 393.60 23.91Q391.57 22.88 390.36 20.88Q389.15 18.88 389.15 16.04L389.15 16.04Q389.15 13.53 390.30 11.53Q391.45 9.53 393.47 8.40Q395.50 7.28 398.04 7.28L398.04 7.28Q400.23 7.28 402.11 8.24L402.11 8.24ZM423.88 22.12Q424.03 22.31 424.13 22.60Q424.23 22.88 424.23 23.13L424.23 23.13Q424.23 23.79 423.72 24.24Q423.21 24.68 422.55 24.68L422.55 24.68Q422.23 24.68 421.93 24.53Q421.64 24.39 421.44 24.12L421.44 24.12L416.08 17.06L413.74 19.30L413.74 23.18Q413.74 23.84 413.30 24.26Q412.87 24.68 412.18 24.68L412.18 24.68Q411.51 24.68 411.08 24.25Q410.65 23.82 410.65 23.18L410.65 23.18L410.65 8.91Q410.65 8.27 411.10 7.84Q411.54 7.40 412.23 7.40L412.23 7.40Q412.90 7.40 413.32 7.82Q413.74 8.24 413.74 8.91L413.74 8.91L413.74 15.62L421.64 7.85Q422.20 7.28 422.84 7.28L422.84 7.28Q423.41 7.28 423.81 7.75Q424.20 8.22 424.20 8.74L424.20 8.74Q424.20 9.26 423.76 9.70L423.76 9.70L418.38 14.83L423.88 22.12Z"></path>
          </g>
  </svg>