<?xml version="1.0" encoding="utf-8"?>
<!-- Generator: Adobe Illustrator 14.0.0, SVG Export Plug-In . SVG Version: 6.00 Build 43363)  -->
<!DOCTYPE svg PUBLIC "-//W3C//DTD SVG 1.1//EN" "https://www.w3.org/Graphics/SVG/1.1/DTD/svg11.dtd">
<svg version="1.1" id="Ebene_1" xmlns="https://www.w3.org/2000/svg" xmlns:xlink="https://www.w3.org/1999/xlink" x="0px" y="0px"
	 width="560px" height="205.625px" viewBox="0 0 560 205.625" enable-background="new 0 0 560 205.625" xml:space="preserve">
<g>
	<g>
		<path fill="#B1B3B4" d="M447.047,191.236v-55.481h11.145v55.481H447.047z"/>
		<path fill="#B1B3B4" d="M497.12,166.615c0-5.74-1.748-7.238-8.484-7.238h-18.799v-8.649h18.799c6.736,0,8.234,0.165,10.895,0.998
			c3.578,1.164,6.488,4.325,7.82,8.484c0.748,2.328,0.916,3.908,0.916,8.234v22.792h-23.457c-8.652,0-10.73-0.333-13.227-2.163
			c-2.994-2.163-4.656-5.74-4.656-9.815c0-5.656,2.992-10.314,7.402-11.729c1.828-0.582,5.072-0.914,9.148-0.914H497.12z
			 M484.229,175.265c-2.662,0-2.662,0-3.578,0.25c-1.498,0.416-2.414,1.829-2.414,3.493c0,2.579,1.664,3.576,5.992,3.576h12.891
			v-7.32H484.229z"/>
		<path fill="#B1B3B4" d="M539.704,150.728c7.404,0,12.396,1.996,15.973,6.321c2.828,3.328,4.324,8.069,4.324,13.393
			c0,7.984-3.16,14.223-8.898,17.8c-3.744,2.329-6.986,2.995-14.309,2.995h-18.133v-55.481h11.148v14.973H539.704z M529.809,182.584
			h8.232c6.572,0,10.563-4.492,10.563-11.811c0-7.653-3.492-11.396-10.563-11.396h-8.232V182.584z"/>
	</g>
	<g>
		<g>
			<path fill="#D80036" d="M138.632,128.374c7.486-11.368,10.813-21.072,10.813-32.994c0-30.776-24.398-55.453-54.897-55.453
				c-27.727,0-49.908,18.854-54.622,46.857H0C5.268,36.599,44.916,0,94.269,0c52.403,0,94.825,42.421,94.825,94.825
				c0,11.646-1.664,21.627-5.822,33.549H138.632z M189.372,189.926h-74.862c-41.035,0-60.443-5.545-81.238-23.567
				c-18.299-15.25-28.559-33.827-32.44-58.226h40.203c4.991,15.25,11.923,25.232,23.567,32.717
				c12.754,8.318,23.845,10.259,57.394,10.259h67.375V189.926z"/>
		</g>
		<g>
			<path fill="#B1B3B4" d="M245.922,96.994h-19.795c-4.992,0-6.156,0.666-6.156,3.577c0,1.497,0.665,2.662,1.913,3.41
				c0.749,0.418,2.08,0.583,5.323,0.583h6.572c8.9,0,13.974,4.158,13.974,11.563c0,4.991-2.744,9.98-6.571,11.645
				c-1.58,0.749-4.492,1.082-9.066,1.082h-23.041v-8.651h19.797c2.745,0,4.326-0.083,5.24-0.167
				c1.747-0.249,2.745-1.413,2.745-3.244c0-1.663-0.749-2.994-2.08-3.493c-0.748-0.417-1.913-0.5-4.657-0.5h-6.82
				c-5.325,0-7.82-0.583-10.233-2.495c-2.828-2.163-4.574-5.989-4.574-10.148c0-3.992,1.746-7.651,4.658-9.897
				c1.913-1.415,4.325-1.913,8.983-1.913h23.789V96.994z"/>
			<path fill="#B1B3B4" d="M291.838,94.582c3.161,3.993,4.658,8.65,4.658,14.473c0,12.562-8.318,20.379-21.627,20.379
				c-13.309,0-21.21-7.735-21.21-20.961c0-12.726,8.4-20.712,21.626-20.712C282.604,87.76,288.345,90.09,291.838,94.582z
				 M265.053,108.805c0,7.902,3.494,12.062,10.149,12.062c6.571,0,9.897-4.077,9.897-12.395c0-8.068-3.41-12.144-10.147-12.144
				C268.297,96.329,265.053,100.488,265.053,108.805z"/>
			<path fill="#B1B3B4" d="M300.819,96.994v-8.65h7.32v-2.412c0-8.818,3.576-12.562,11.728-12.562h9.815v8.651h-5.656
				c-3.41,0-4.741,1.249-4.741,4.492v1.83h10.397v8.65h-10.397v31.858h-11.146V96.994H300.819z"/>
			<path fill="#B1B3B4" d="M340.834,73.37h11.147v14.974h10.313v8.65h-10.313v14.723c0,4.159,0.164,5.407,0.914,6.489
				c0.914,1.331,2.662,1.996,4.99,1.996h4.408v8.651h-8.068c-4.658,0-7.653-0.916-9.816-3.077c-2.744-2.58-3.575-5.574-3.575-12.146
				V96.994h-7.071v-8.65h7.071V73.37z"/>
			<path fill="#B1B3B4" d="M393.071,88.344h11.145v31.857h11.979V88.344h11.146v40.508h-40.926c-7.402,0-10.813-0.916-13.391-3.743
				c-2.33-2.578-3.66-6.488-3.66-10.979V88.344h11.146v24.039c0,3.992,0.248,5.074,1.496,6.238c1.082,1.082,2.828,1.58,5.158,1.58
				h5.906V88.344z"/>
			<path fill="#B1B3B4" d="M465.758,104.231c0-5.74-1.746-7.237-8.484-7.237h-18.799v-8.65h18.799c6.738,0,8.234,0.165,10.896,0.998
				c3.576,1.165,6.488,4.326,7.82,8.485c0.748,2.328,0.914,3.909,0.914,8.233v22.792h-23.457c-8.65,0-10.73-0.333-13.225-2.162
				c-2.996-2.163-4.658-5.74-4.658-9.815c0-5.656,2.994-10.314,7.402-11.729c1.83-0.582,5.074-0.914,9.15-0.914H465.758z
				 M452.866,112.88c-2.662,0-2.662,0-3.576,0.25c-1.498,0.416-2.412,1.829-2.412,3.493c0,2.579,1.664,3.577,5.988,3.577h12.893
				v-7.32H452.866z"/>
			<path fill="#B1B3B4" d="M503.772,88.344c6.82,0,9.895,0.747,12.477,3.078c2.492,2.246,3.326,5.073,3.326,11.229v3.992h-10.729
				v-2.161c0-5.74-1.666-7.487-7.154-7.487h-3.244v31.858h-11.146V88.344H503.772z"/>
			<path fill="#B1B3B4" d="M560,112.88h-23.455c0.248,3.078,0.998,4.576,2.992,5.907c1.582,1.08,3.33,1.413,6.822,1.413H560v8.651
				h-14.805c-6.406,0-9.982-0.998-13.641-3.826c-4.826-3.661-7.322-9.482-7.322-16.969c0-7.071,3.078-13.558,7.904-16.802
				c3.076-2.079,6.736-2.911,12.227-2.911H560v8.65h-14.805c-6.072,0-8.152,1.663-8.65,7.237H560V112.88z"/>
			<path fill="#D80036" d="M237.106,150.728h11.146v40.508h-21.876c-6.489,0-9.151-0.749-11.979-3.244
				c-2.828-2.662-4.242-6.654-4.242-12.31v-24.954h11.146v26.034c0,3.661,1.997,5.822,5.324,5.822h10.481V150.728z"/>
			<path fill="#D80036" d="M287.263,166.615c0-5.74-1.746-7.238-8.485-7.238h-18.798v-8.649h18.798
				c6.739,0,8.236,0.165,10.897,0.998c3.577,1.164,6.487,4.325,7.818,8.484c0.749,2.328,0.916,3.908,0.916,8.234v22.792h-23.457
				c-8.651,0-10.73-0.333-13.226-2.163c-2.995-2.163-4.659-5.74-4.659-9.815c0-5.656,2.995-10.314,7.403-11.729
				c1.83-0.582,5.074-0.914,9.15-0.914H287.263z M274.371,175.265c-2.662,0-2.662,0-3.577,0.25
				c-1.498,0.416-2.412,1.829-2.412,3.493c0,2.579,1.664,3.576,5.989,3.576h12.892v-7.32H274.371z"/>
			<path fill="#D80036" d="M308.805,191.236v-55.481h11.146v55.481H308.805z"/>
			<path fill="#D80036" d="M330.929,135.755h11.146v10.813h-11.146V135.755z M342.075,150.728v40.508h-11.146v-40.508H342.075z"/>
			<path fill="#D80036" d="M355.965,135.755h11.146v14.973h10.314v8.649h-10.314V174.1c0,4.159,0.166,5.408,0.914,6.489
				c0.916,1.331,2.662,1.995,4.992,1.995h4.408v8.651h-8.068c-4.658,0-7.652-0.915-9.814-3.077
				c-2.744-2.579-3.578-5.574-3.578-12.146v-16.636h-7.068v-8.649h7.068V135.755z"/>
			<path fill="#D80036" d="M410.614,150.728h11.146v39.676c0,6.488-2.078,10.729-6.488,13.226c-2.412,1.33-5.904,1.995-10.896,1.995
				h-19.879v-8.651h19.879c1.416,0,3.328-0.249,4.158-0.582c1.332-0.499,1.832-1.414,1.998-3.66l0.082-1.497h-9.896
				c-6.322,0-9.648-1.082-12.563-4.159c-2.91-3.161-3.658-5.905-3.658-13.725v-22.624h11.146v21.543c0,8.4,1.08,10.313,5.822,10.313
				h9.148V150.728z"/>
		</g>
	</g>
</g>
</svg>
